<?xml version="1.0" encoding="UTF-8"?>
<svg xmlns="http://www.w3.org/2000/svg" xmlns:xlink="http://www.w3.org/1999/xlink" width="1960.5" height="2306.5" viewBox="0 0 1960.5 2306.5">
<defs>
<clipPath id="clip-0">
<path clip-rule="nonzero" d="M 0 1006 L 1960.5 1006 L 1960.5 2306.5 L 0 2306.5 Z M 0 1006 "/>
</clipPath>
<clipPath id="clip-1">
<path clip-rule="nonzero" d="M 561 1006 L 1399 1006 L 1399 1326 L 561 1326 Z M 561 1006 "/>
</clipPath>
<clipPath id="clip-2">
<path clip-rule="evenodd" d="M 0.34375 2306.328125 C 0.34375 2306.328125 98.875 1822.203125 350.390625 1695.621094 C 464.210938 1638.339844 627.992188 1625.488281 713.046875 1532.382812 C 759.308594 1481.738281 779.554688 1415.457031 781.601562 1352.605469 C 785.789062 1224.058594 760.046875 1006.589844 760.046875 1006.589844 L 1200.441406 1006.589844 C 1200.441406 1006.589844 1174.699219 1224.058594 1178.890625 1352.605469 C 1180.929688 1415.457031 1201.179688 1481.738281 1247.441406 1532.382812 C 1332.5 1625.488281 1496.28125 1638.339844 1610.101562 1695.621094 C 1861.621094 1822.203125 1960.148438 2306.328125 1960.148438 2306.328125 Z M 0.34375 2306.328125 "/>
</clipPath>
<clipPath id="clip-3">
<path clip-rule="nonzero" d="M 0 1591 L 1960.5 1591 L 1960.5 2306.5 L 0 2306.5 Z M 0 1591 "/>
</clipPath>
<clipPath id="clip-4">
<path clip-rule="nonzero" d="M 56 2236 L 197 2236 L 197 2306.5 L 56 2306.5 Z M 56 2236 "/>
</clipPath>
<clipPath id="clip-5">
<path clip-rule="evenodd" d="M 1329.898438 1591.984375 C 1416.300781 1635.503906 1526.640625 1653.617188 1610.101562 1695.621094 C 1861.621094 1822.203125 1960.148438 2306.328125 1960.148438 2306.328125 L 0.34375 2306.328125 C 0.34375 2306.328125 98.875 1822.203125 350.390625 1695.621094 C 433.855469 1653.617188 544.183594 1635.503906 630.59375 1591.984375 C 722.0625 1667.152344 845.070312 1713.140625 980.246094 1713.140625 C 1115.421875 1713.140625 1238.429688 1667.152344 1329.898438 1591.984375 Z M 1329.898438 1591.984375 "/>
</clipPath>
<clipPath id="clip-6">
<path clip-rule="nonzero" d="M 1766 2236 L 1908 2236 L 1908 2306.5 L 1766 2306.5 Z M 1766 2236 "/>
</clipPath>
<clipPath id="clip-7">
<path clip-rule="evenodd" d="M 1329.898438 1591.984375 C 1416.300781 1635.503906 1526.640625 1653.617188 1610.101562 1695.621094 C 1861.621094 1822.203125 1960.148438 2306.328125 1960.148438 2306.328125 L 0.34375 2306.328125 C 0.34375 2306.328125 98.875 1822.203125 350.390625 1695.621094 C 433.855469 1653.617188 544.183594 1635.503906 630.59375 1591.984375 C 722.0625 1667.152344 845.070312 1713.140625 980.246094 1713.140625 C 1115.421875 1713.140625 1238.429688 1667.152344 1329.898438 1591.984375 Z M 1329.898438 1591.984375 "/>
</clipPath>
<clipPath id="clip-8">
<path clip-rule="nonzero" d="M 300 1770 L 442 1770 L 442 1912 L 300 1912 Z M 300 1770 "/>
</clipPath>
<clipPath id="clip-9">
<path clip-rule="evenodd" d="M 1329.898438 1591.984375 C 1416.300781 1635.503906 1526.640625 1653.617188 1610.101562 1695.621094 C 1861.621094 1822.203125 1960.148438 2306.328125 1960.148438 2306.328125 L 0.34375 2306.328125 C 0.34375 2306.328125 98.875 1822.203125 350.390625 1695.621094 C 433.855469 1653.617188 544.183594 1635.503906 630.59375 1591.984375 C 722.0625 1667.152344 845.070312 1713.140625 980.246094 1713.140625 C 1115.421875 1713.140625 1238.429688 1667.152344 1329.898438 1591.984375 Z M 1329.898438 1591.984375 "/>
</clipPath>
<clipPath id="clip-10">
<path clip-rule="nonzero" d="M 1522 1770 L 1664 1770 L 1664 1912 L 1522 1912 Z M 1522 1770 "/>
</clipPath>
<clipPath id="clip-11">
<path clip-rule="evenodd" d="M 1329.898438 1591.984375 C 1416.300781 1635.503906 1526.640625 1653.617188 1610.101562 1695.621094 C 1861.621094 1822.203125 1960.148438 2306.328125 1960.148438 2306.328125 L 0.34375 2306.328125 C 0.34375 2306.328125 98.875 1822.203125 350.390625 1695.621094 C 433.855469 1653.617188 544.183594 1635.503906 630.59375 1591.984375 C 722.0625 1667.152344 845.070312 1713.140625 980.246094 1713.140625 C 1115.421875 1713.140625 1238.429688 1667.152344 1329.898438 1591.984375 Z M 1329.898438 1591.984375 "/>
</clipPath>
<clipPath id="clip-12">
<path clip-rule="nonzero" d="M 480 2095 L 622 2095 L 622 2237 L 480 2237 Z M 480 2095 "/>
</clipPath>
<clipPath id="clip-13">
<path clip-rule="evenodd" d="M 1329.898438 1591.984375 C 1416.300781 1635.503906 1526.640625 1653.617188 1610.101562 1695.621094 C 1861.621094 1822.203125 1960.148438 2306.328125 1960.148438 2306.328125 L 0.34375 2306.328125 C 0.34375 2306.328125 98.875 1822.203125 350.390625 1695.621094 C 433.855469 1653.617188 544.183594 1635.503906 630.59375 1591.984375 C 722.0625 1667.152344 845.070312 1713.140625 980.246094 1713.140625 C 1115.421875 1713.140625 1238.429688 1667.152344 1329.898438 1591.984375 Z M 1329.898438 1591.984375 "/>
</clipPath>
<clipPath id="clip-14">
<path clip-rule="nonzero" d="M 1342 2095 L 1484 2095 L 1484 2237 L 1342 2237 Z M 1342 2095 "/>
</clipPath>
<clipPath id="clip-15">
<path clip-rule="evenodd" d="M 1329.898438 1591.984375 C 1416.300781 1635.503906 1526.640625 1653.617188 1610.101562 1695.621094 C 1861.621094 1822.203125 1960.148438 2306.328125 1960.148438 2306.328125 L 0.34375 2306.328125 C 0.34375 2306.328125 98.875 1822.203125 350.390625 1695.621094 C 433.855469 1653.617188 544.183594 1635.503906 630.59375 1591.984375 C 722.0625 1667.152344 845.070312 1713.140625 980.246094 1713.140625 C 1115.421875 1713.140625 1238.429688 1667.152344 1329.898438 1591.984375 Z M 1329.898438 1591.984375 "/>
</clipPath>
<clipPath id="clip-16">
<path clip-rule="nonzero" d="M 909 1949 L 1051 1949 L 1051 2090 L 909 2090 Z M 909 1949 "/>
</clipPath>
<clipPath id="clip-17">
<path clip-rule="evenodd" d="M 1329.898438 1591.984375 C 1416.300781 1635.503906 1526.640625 1653.617188 1610.101562 1695.621094 C 1861.621094 1822.203125 1960.148438 2306.328125 1960.148438 2306.328125 L 0.34375 2306.328125 C 0.34375 2306.328125 98.875 1822.203125 350.390625 1695.621094 C 433.855469 1653.617188 544.183594 1635.503906 630.59375 1591.984375 C 722.0625 1667.152344 845.070312 1713.140625 980.246094 1713.140625 C 1115.421875 1713.140625 1238.429688 1667.152344 1329.898438 1591.984375 Z M 1329.898438 1591.984375 "/>
</clipPath>
</defs>
<g clip-path="url(#clip-0)">
<path fill-rule="evenodd" fill="rgb(61.521912%, 34.104919%, 14.109802%)" fill-opacity="1" d="M 0.34375 2306.328125 C 0.34375 2306.328125 98.875 1822.203125 350.390625 1695.621094 C 464.210938 1638.339844 627.992188 1625.488281 713.046875 1532.382812 C 759.308594 1481.738281 779.554688 1415.457031 781.601562 1352.605469 C 785.789062 1224.058594 760.046875 1006.589844 760.046875 1006.589844 L 1200.441406 1006.589844 C 1200.441406 1006.589844 1174.699219 1224.058594 1178.890625 1352.605469 C 1180.929688 1415.457031 1201.179688 1481.738281 1247.441406 1532.382812 C 1332.5 1625.488281 1496.28125 1638.339844 1610.101562 1695.621094 C 1861.621094 1822.203125 1960.148438 2306.328125 1960.148438 2306.328125 L 0.34375 2306.328125 "/>
</g>
<g clip-path="url(#clip-1)">
<g clip-path="url(#clip-2)">
<path fill-rule="evenodd" fill="rgb(38.401794%, 9.397888%, 4.299927%)" fill-opacity="1" d="M 980.246094 135.710938 C 1211.261719 135.710938 1398.820312 402.191406 1398.820312 730.421875 C 1398.820312 1058.640625 1211.261719 1325.125 980.246094 1325.125 C 749.226562 1325.125 561.667969 1058.640625 561.667969 730.421875 C 561.667969 402.191406 749.226562 135.710938 980.246094 135.710938 "/>
</g>
</g>
<path fill-rule="evenodd" fill="rgb(61.521912%, 34.104919%, 14.109802%)" fill-opacity="1" d="M 1370.300781 677.449219 C 1397.109375 626.308594 1481.03125 561.421875 1528.398438 627.488281 C 1533.140625 634.089844 1537.429688 641.5 1539.871094 649.300781 C 1544.828125 665.171875 1543.53125 682.828125 1542.308594 699.179688 C 1538.738281 746.570312 1518.238281 791.25 1491.46875 829.839844 C 1456.660156 880.011719 1400.210938 914.898438 1339.289062 921.46875 C 1301.710938 925.53125 1264.019531 914.160156 1262.769531 871.21875 C 1261.441406 825.75 1294.960938 787.480469 1318.300781 751.671875 C 1338.121094 721.261719 1349.429688 707.019531 1370.300781 677.449219 "/>
<path fill-rule="evenodd" fill="rgb(41.088867%, 12.205505%, 5.39856%)" fill-opacity="1" d="M 1384.101562 759.609375 C 1408.171875 735.050781 1440.71875 721 1473.28125 715.570312 C 1479.089844 714.601562 1483.019531 709.101562 1482.050781 703.289062 C 1481.078125 697.480469 1475.578125 693.550781 1469.769531 694.519531 C 1427.378906 701.578125 1385.238281 721.890625 1357.328125 757.878906 C 1348.761719 768.941406 1340.519531 780.851562 1333.898438 793.308594 C 1331.671875 797.5 1329.71875 801.828125 1327.738281 806.160156 C 1327.089844 807.570312 1326.839844 808.101562 1326.261719 809.410156 C 1325.621094 810.859375 1324.140625 814.609375 1324.058594 815.230469 C 1323.308594 820.929688 1326.398438 823.878906 1328.390625 825.308594 C 1330.519531 826.859375 1333.289062 827.890625 1336.921875 827.101562 C 1337.808594 826.910156 1340.140625 826.519531 1342.679688 823.75 C 1352.890625 812.589844 1363.539062 799.839844 1375.710938 789.941406 C 1386.359375 781.28125 1398.191406 774.78125 1412.308594 774.828125 C 1418.269531 774.851562 1424.480469 776.511719 1430.160156 778.320312 C 1435.769531 780.109375 1441.78125 777.011719 1443.558594 771.390625 C 1445.351562 765.78125 1442.25 759.769531 1436.640625 757.988281 C 1428.941406 755.53125 1420.460938 753.519531 1412.378906 753.488281 C 1402.210938 753.460938 1392.828125 755.71875 1384.101562 759.609375 "/>
<path fill-rule="evenodd" fill="rgb(61.521912%, 34.104919%, 14.109802%)" fill-opacity="1" d="M 590.1875 677.449219 C 563.382812 626.308594 479.460938 561.421875 432.089844 627.488281 C 427.351562 634.089844 423.0625 641.5 420.625 649.300781 C 415.65625 665.171875 416.953125 682.828125 418.183594 699.179688 C 421.746094 746.570312 442.246094 791.25 469.019531 829.839844 C 503.824219 880.011719 560.28125 914.898438 621.195312 921.46875 C 658.777344 925.53125 696.472656 914.160156 697.722656 871.21875 C 699.046875 825.75 665.53125 787.480469 642.191406 751.671875 C 622.375 721.261719 611.054688 707.019531 590.1875 677.449219 "/>
<path fill-rule="evenodd" fill="rgb(41.088867%, 12.205505%, 5.39856%)" fill-opacity="1" d="M 576.386719 759.609375 C 567.664062 755.71875 558.285156 753.460938 548.109375 753.488281 C 540.027344 753.519531 531.554688 755.53125 523.851562 757.988281 C 518.242188 759.769531 515.136719 765.78125 516.925781 771.390625 C 518.710938 777.011719 524.71875 780.109375 530.328125 778.320312 C 536.007812 776.511719 542.222656 774.851562 548.179688 774.828125 C 562.304688 774.78125 574.128906 781.28125 584.777344 789.941406 C 596.949219 799.839844 607.59375 812.589844 617.808594 823.75 C 620.347656 826.519531 622.679688 826.910156 623.566406 827.101562 C 627.203125 827.890625 629.964844 826.859375 632.105469 825.308594 C 634.085938 823.878906 637.183594 820.929688 636.433594 815.230469 C 636.351562 814.609375 634.875 810.859375 634.230469 809.410156 C 633.648438 808.101562 633.394531 807.570312 632.746094 806.160156 C 630.765625 801.828125 628.824219 797.5 626.59375 793.308594 C 619.96875 780.851562 611.734375 768.941406 603.164062 757.878906 C 575.253906 721.890625 533.109375 701.578125 490.71875 694.519531 C 484.90625 693.550781 479.40625 697.480469 478.4375 703.289062 C 477.46875 709.101562 481.398438 714.601562 487.207031 715.570312 C 519.773438 721 552.316406 735.050781 576.386719 759.609375 "/>
<path fill-rule="evenodd" fill="rgb(61.521912%, 34.104919%, 14.109802%)" fill-opacity="1" d="M 980.246094 101.890625 C 1211.261719 101.890625 1398.820312 368.359375 1398.820312 696.589844 C 1398.820312 1024.820312 1211.261719 1291.300781 980.246094 1291.300781 C 749.226562 1291.300781 561.667969 1024.820312 561.667969 696.589844 C 561.667969 368.359375 749.226562 101.890625 980.246094 101.890625 "/>
<path fill-rule="evenodd" fill="rgb(0%, 0%, 0%)" fill-opacity="1" d="M 1127.101562 655.621094 C 1141.890625 655.621094 1153.890625 674.070312 1153.890625 696.808594 C 1153.890625 719.539062 1141.890625 738 1127.101562 738 C 1112.308594 738 1100.308594 719.539062 1100.308594 696.808594 C 1100.308594 674.070312 1112.308594 655.621094 1127.101562 655.621094 "/>
<path fill-rule="evenodd" fill="rgb(0%, 0%, 0%)" fill-opacity="1" d="M 828.128906 655.621094 C 842.914062 655.621094 854.921875 674.070312 854.921875 696.808594 C 854.921875 719.539062 842.914062 738 828.128906 738 C 813.339844 738 801.332031 719.539062 801.332031 696.808594 C 801.332031 674.070312 813.339844 655.621094 828.128906 655.621094 "/>
<path fill-rule="evenodd" fill="rgb(41.088867%, 12.205505%, 5.39856%)" fill-opacity="1" d="M 946.320312 855.171875 C 946.527344 854.691406 948.121094 851.03125 949.453125 848.851562 C 953.707031 841.878906 959.390625 834.410156 961.511719 829.878906 C 970.59375 810.460938 975.042969 791.140625 977.917969 769.941406 C 978.710938 764.101562 974.613281 758.71875 968.777344 757.929688 C 962.941406 757.140625 957.5625 761.230469 956.769531 767.070312 C 954.191406 786.078125 950.324219 803.429688 942.183594 820.828125 C 939.890625 825.730469 932.96875 834.230469 929.074219 841.488281 C 926.347656 846.570312 924.933594 851.390625 924.972656 855.070312 C 925.082031 866.109375 930.828125 876.078125 939.636719 884.441406 C 950.257812 894.519531 965.390625 902.289062 975.371094 907.410156 C 980.609375 910.101562 987.050781 908.03125 989.738281 902.789062 C 992.425781 897.550781 990.355469 891.109375 985.117188 888.421875 C 976.558594 884.03125 963.433594 877.609375 954.328125 868.960938 C 950.058594 864.910156 946.5 860.480469 946.320312 855.171875 "/>
<path fill-rule="evenodd" fill="rgb(0%, 0%, 0%)" fill-opacity="1" d="M 1100.820312 593.359375 C 1145.871094 585.890625 1195.238281 595.039062 1228.101562 628.898438 C 1232.210938 633.128906 1238.96875 633.230469 1243.191406 629.128906 C 1247.421875 625.03125 1247.519531 618.269531 1243.421875 614.039062 C 1205.640625 575.109375 1149.121094 563.71875 1097.328125 572.308594 C 1091.519531 573.269531 1087.589844 578.769531 1088.550781 584.578125 C 1089.511719 590.390625 1095.011719 594.328125 1100.820312 593.359375 "/>
<path fill-rule="evenodd" fill="rgb(0%, 0%, 0%)" fill-opacity="1" d="M 863.160156 572.308594 C 811.371094 563.71875 754.847656 575.109375 717.070312 614.039062 C 712.96875 618.269531 713.070312 625.03125 717.296875 629.128906 C 721.523438 633.230469 728.285156 633.128906 732.386719 628.898438 C 765.246094 595.039062 814.625 585.890625 859.667969 593.359375 C 865.476562 594.328125 870.976562 590.390625 871.941406 584.578125 C 872.90625 578.769531 868.96875 573.269531 863.160156 572.308594 "/>
<path fill-rule="evenodd" fill="rgb(41.088867%, 12.205505%, 5.39856%)" fill-opacity="1" d="M 909.070312 981 C 924.996094 1002.078125 953.230469 1012.339844 981.332031 1011.890625 C 1009.441406 1011.441406 1036.960938 1000.21875 1051.5 980.460938 C 1054.988281 975.710938 1053.96875 969.03125 1049.230469 965.539062 C 1044.488281 962.050781 1037.800781 963.070312 1034.308594 967.808594 C 1023.351562 982.710938 1002.179688 990.210938 980.988281 990.550781 C 959.785156 990.890625 938.113281 984.039062 926.097656 968.128906 C 922.546875 963.429688 915.851562 962.5 911.152344 966.050781 C 906.453125 969.601562 905.519531 976.300781 909.070312 981 "/>
<path fill-rule="evenodd" fill="rgb(46.289062%, 17.993164%, 8.59375%)" fill-opacity="1" d="M 1178.308594 778.371094 C 1211.488281 778.371094 1238.429688 795.839844 1238.429688 817.359375 C 1238.429688 838.871094 1211.488281 856.339844 1178.308594 856.339844 C 1145.128906 856.339844 1118.199219 838.871094 1118.199219 817.359375 C 1118.199219 795.839844 1145.128906 778.371094 1178.308594 778.371094 "/>
<path fill-rule="evenodd" fill="rgb(46.289062%, 17.993164%, 8.59375%)" fill-opacity="1" d="M 782.175781 778.371094 C 815.355469 778.371094 842.292969 795.839844 842.292969 817.359375 C 842.292969 838.871094 815.355469 856.339844 782.175781 856.339844 C 748.996094 856.339844 722.058594 838.871094 722.058594 817.359375 C 722.058594 795.839844 748.996094 778.371094 782.175781 778.371094 "/>
<path fill-rule="evenodd" fill="rgb(29.588318%, 37.5%, 33.496094%)" fill-opacity="1" d="M 1277.46875 447.660156 C 1277.46875 447.660156 1396.160156 565 1398.109375 687.519531 C 1398.109375 687.519531 1432.480469 460.808594 1338.519531 345.011719 L 1210.660156 343.539062 L 1277.46875 447.660156 "/>
<path fill-rule="evenodd" fill="rgb(29.588318%, 37.5%, 33.496094%)" fill-opacity="1" d="M 825.871094 362.589844 C 825.871094 362.589844 581.265625 535.808594 562.984375 732.710938 C 562.984375 732.710938 492.980469 372.109375 639.070312 251.089844 L 825.871094 362.589844 "/>
<path fill-rule="evenodd" fill="rgb(6.394958%, 18.701172%, 12.5%)" fill-opacity="1" d="M 639.070312 253.601562 C 639.070312 253.601562 945.800781 591.269531 1352.210938 451.421875 C 1352.210938 451.421875 1276.699219 426.921875 1238.179688 365.320312 C 1238.179688 365.320312 1428.238281 424.96875 1596.980469 209.640625 C 1596.980469 209.640625 1519.21875 267.460938 1399.289062 201.628906 C 1279.351562 135.800781 865.695312 -143.878906 639.070312 253.601562 "/>
<path fill-rule="evenodd" fill="rgb(6.394958%, 18.701172%, 12.5%)" fill-opacity="1" d="M 662.238281 252.960938 C 668.0625 179.269531 735.964844 125.851562 793.621094 88.230469 C 832.246094 63.019531 874.507812 43.191406 918.695312 29.808594 C 951.160156 19.988281 985.429688 13.820312 1019.421875 14.011719 C 1096.96875 14.421875 1162.53125 44.269531 1224.738281 82.660156 C 1288.128906 121.769531 1348.070312 169.738281 1413.261719 205.609375 C 1448.199219 224.828125 1486.179688 245.671875 1525.660156 253.800781 C 1529.441406 254.578125 1533.148438 252.140625 1533.929688 248.359375 C 1534.710938 244.578125 1532.269531 240.871094 1528.488281 240.089844 C 1490.351562 232.238281 1453.75 211.910156 1420.011719 193.339844 C 1355.03125 157.578125 1295.289062 109.738281 1232.089844 70.738281 C 1167.710938 31.011719 1099.761719 0.441406 1019.5 0.0117188 C 984.113281 -0.179688 948.433594 6.179688 914.640625 16.410156 C 869.179688 30.171875 825.707031 50.570312 785.96875 76.5 C 724.964844 116.308594 654.445312 173.890625 648.28125 251.851562 C 647.976562 255.699219 650.859375 259.078125 654.710938 259.378906 C 658.5625 259.691406 661.933594 256.808594 662.238281 252.960938 "/>
<g clip-path="url(#clip-3)">
<path fill-rule="evenodd" fill="rgb(0%, 0%, 0%)" fill-opacity="1" d="M 1329.898438 1591.984375 C 1416.300781 1635.503906 1526.640625 1653.617188 1610.101562 1695.621094 C 1861.621094 1822.203125 1960.148438 2306.328125 1960.148438 2306.328125 L 0.34375 2306.328125 C 0.34375 2306.328125 98.875 1822.203125 350.390625 1695.621094 C 433.855469 1653.617188 544.183594 1635.503906 630.59375 1591.984375 C 722.0625 1667.152344 845.070312 1713.140625 980.246094 1713.140625 C 1115.421875 1713.140625 1238.429688 1667.152344 1329.898438 1591.984375 "/>
</g>
<g clip-path="url(#clip-4)">
<g clip-path="url(#clip-5)">
<path fill-rule="evenodd" fill="rgb(100%, 100%, 100%)" fill-opacity="1" d="M 126.589844 2236.078125 C 165.359375 2236.078125 196.839844 2267.554688 196.839844 2306.328125 C 196.839844 2345.101562 165.359375 2376.578125 126.589844 2376.578125 C 87.816406 2376.578125 56.339844 2345.101562 56.339844 2306.328125 C 56.339844 2267.554688 87.816406 2236.078125 126.589844 2236.078125 "/>
</g>
</g>
<g clip-path="url(#clip-6)">
<g clip-path="url(#clip-7)">
<path fill-rule="evenodd" fill="rgb(100%, 100%, 100%)" fill-opacity="1" d="M 1837.230469 2236.078125 C 1798.460938 2236.078125 1766.980469 2267.554688 1766.980469 2306.328125 C 1766.980469 2345.101562 1798.460938 2376.578125 1837.230469 2376.578125 C 1876.011719 2376.578125 1907.480469 2345.101562 1907.480469 2306.328125 C 1907.480469 2267.554688 1876.011719 2236.078125 1837.230469 2236.078125 "/>
</g>
</g>
<g clip-path="url(#clip-8)">
<g clip-path="url(#clip-9)">
<path fill-rule="evenodd" fill="rgb(100%, 100%, 100%)" fill-opacity="1" d="M 370.976562 1770.757812 C 409.746094 1770.757812 441.226562 1802.234375 441.226562 1841.007812 C 441.226562 1879.777344 409.746094 1911.257812 370.976562 1911.257812 C 332.203125 1911.257812 300.726562 1879.777344 300.726562 1841.007812 C 300.726562 1802.234375 332.203125 1770.757812 370.976562 1770.757812 "/>
</g>
</g>
<g clip-path="url(#clip-10)">
<g clip-path="url(#clip-11)">
<path fill-rule="evenodd" fill="rgb(100%, 100%, 100%)" fill-opacity="1" d="M 1592.851562 1770.757812 C 1554.070312 1770.757812 1522.601562 1802.234375 1522.601562 1841.007812 C 1522.601562 1879.777344 1554.070312 1911.257812 1592.851562 1911.257812 C 1631.621094 1911.257812 1663.101562 1879.777344 1663.101562 1841.007812 C 1663.101562 1802.234375 1631.621094 1770.757812 1592.851562 1770.757812 "/>
</g>
</g>
<g clip-path="url(#clip-12)">
<g clip-path="url(#clip-13)">
<path fill-rule="evenodd" fill="rgb(100%, 100%, 100%)" fill-opacity="1" d="M 550.914062 2095.578125 C 589.6875 2095.578125 621.164062 2127.054688 621.164062 2165.828125 C 621.164062 2204.601562 589.6875 2236.078125 550.914062 2236.078125 C 512.144531 2236.078125 480.664062 2204.601562 480.664062 2165.828125 C 480.664062 2127.054688 512.144531 2095.578125 550.914062 2095.578125 "/>
</g>
</g>
<g clip-path="url(#clip-14)">
<g clip-path="url(#clip-15)">
<path fill-rule="evenodd" fill="rgb(100%, 100%, 100%)" fill-opacity="1" d="M 1412.910156 2095.578125 C 1374.140625 2095.578125 1342.660156 2127.054688 1342.660156 2165.828125 C 1342.660156 2204.601562 1374.140625 2236.078125 1412.910156 2236.078125 C 1451.679688 2236.078125 1483.160156 2204.601562 1483.160156 2165.828125 C 1483.160156 2127.054688 1451.679688 2095.578125 1412.910156 2095.578125 "/>
</g>
</g>
<g clip-path="url(#clip-16)">
<g clip-path="url(#clip-17)">
<path fill-rule="evenodd" fill="rgb(100%, 100%, 100%)" fill-opacity="1" d="M 980.246094 1949.15625 C 1019.019531 1949.15625 1050.488281 1980.636719 1050.488281 2019.40625 C 1050.488281 2058.179688 1019.019531 2089.65625 980.246094 2089.65625 C 941.472656 2089.65625 909.992188 2058.179688 909.992188 2019.40625 C 909.992188 1980.636719 941.472656 1949.15625 980.246094 1949.15625 "/>
</g>
</g>
<path fill-rule="evenodd" fill="rgb(100%, 100%, 100%)" fill-opacity="1" d="M 980.246094 1718.101562 L 980.210938 1717.929688 C 974.972656 1744.390625 968.148438 1770.582031 955.828125 1794.726562 C 887.070312 1929.5 726.300781 1927.003906 601.5 1873.003906 C 510.980469 1833.839844 433.300781 1765.429688 370.976562 1686.28125 C 451.3125 1650.566406 551.082031 1632.03125 630.59375 1591.984375 C 721.851562 1666.980469 844.503906 1712.929688 979.300781 1713.121094 L 981.226562 1713.121094 L 981.1875 1713.121094 C 1115.988281 1712.929688 1238.640625 1666.980469 1329.898438 1591.984375 C 1409.410156 1632.03125 1509.179688 1650.566406 1589.511719 1686.28125 C 1527.191406 1765.429688 1449.511719 1833.839844 1358.988281 1873.003906 C 1234.191406 1927.003906 1073.421875 1929.5 1004.660156 1794.726562 C 992.367188 1770.628906 985.542969 1744.492188 980.246094 1718.101562 "/>
</svg>
