<?xml version="1.0" encoding="UTF-8"?>
<svg xmlns="http://www.w3.org/2000/svg" xmlns:xlink="http://www.w3.org/1999/xlink" width="1979" height="2277.5" viewBox="0 0 1979 2277.5">
<defs>
<clipPath id="clip-0">
<path clip-rule="nonzero" d="M 18 977 L 1979 977 L 1979 2277.5 L 18 2277.5 Z M 18 977 "/>
</clipPath>
<clipPath id="clip-1">
<path clip-rule="nonzero" d="M 589 977 L 1408 977 L 1408 1275 L 589 1275 Z M 589 977 "/>
</clipPath>
<clipPath id="clip-2">
<path clip-rule="evenodd" d="M 18.96875 2277.011719 C 18.96875 2277.011719 117.5 1792.886719 369.015625 1666.304688 C 482.835938 1609.023438 646.617188 1596.171875 731.671875 1503.066406 C 777.933594 1452.421875 798.183594 1386.140625 800.226562 1323.289062 C 804.414062 1194.738281 778.671875 977.269531 778.671875 977.269531 L 1219.070312 977.269531 C 1219.070312 977.269531 1193.328125 1194.738281 1197.511719 1323.289062 C 1199.558594 1386.140625 1219.808594 1452.421875 1266.070312 1503.066406 C 1351.121094 1596.171875 1514.910156 1609.023438 1628.730469 1666.304688 C 1880.238281 1792.886719 1978.769531 2277.011719 1978.769531 2277.011719 Z M 18.96875 2277.011719 "/>
</clipPath>
<clipPath id="clip-3">
<path clip-rule="nonzero" d="M 1122 1566 L 1979 1566 L 1979 2277.5 L 1122 2277.5 Z M 1122 1566 "/>
</clipPath>
<clipPath id="clip-4">
<path clip-rule="nonzero" d="M 18 1566 L 876 1566 L 876 2277.5 L 18 2277.5 Z M 18 1566 "/>
</clipPath>
<clipPath id="clip-5">
<path clip-rule="nonzero" d="M 641 1562 L 1357 1562 L 1357 2277.5 L 641 2277.5 Z M 641 1562 "/>
</clipPath>
</defs>
<path fill-rule="evenodd" fill="rgb(20.800781%, 43.406677%, 61.914062%)" fill-opacity="1" d="M 464.175781 543.328125 C 435.558594 626.339844 415.269531 708.589844 362.882812 781.039062 C 275.617188 901.71875 153.894531 1007.609375 114.894531 1156.949219 C 113.917969 1160.691406 116.160156 1164.511719 119.898438 1165.488281 C 123.636719 1166.46875 127.464844 1164.21875 128.4375 1160.480469 C 166.996094 1012.839844 287.949219 908.558594 374.226562 789.238281 C 427.445312 715.640625 448.339844 632.21875 477.410156 547.890625 C 478.671875 544.238281 476.726562 540.25 473.074219 538.988281 C 469.421875 537.730469 465.433594 539.679688 464.175781 543.328125 "/>
<path fill-rule="evenodd" fill="rgb(20.800781%, 43.406677%, 61.914062%)" fill-opacity="1" d="M 411.195312 662.628906 C 393.5625 820.328125 299.5625 952.109375 188.738281 1060.871094 C 149.742188 1099.140625 108.316406 1137.171875 60.25 1163.78125 C 34.453125 1178.058594 -19.65625 1190.191406 8.101562 1213.988281 C 266.582031 1435.609375 329.574219 1192.550781 329.574219 1192.550781 C 329.574219 1192.550781 301.066406 1370.367188 522.085938 1382.125 C 553.59375 1383.800781 600.136719 1385.433594 630.214844 1373.976562 C 648.847656 1366.878906 660.84375 1344.359375 668.515625 1327.402344 C 686.324219 1288.046875 691.078125 1242.71875 698.421875 1200.511719 C 701.667969 1181.851562 705.257812 1163.289062 709.859375 1144.910156 C 711.226562 1139.449219 712.664062 1134.019531 714.195312 1128.609375 C 714.703125 1126.800781 714.480469 1121.800781 715.75 1123.191406 C 723.214844 1131.339844 726.023438 1153.160156 728.328125 1163.421875 C 737.511719 1204.308594 735.714844 1248.601562 731.503906 1290.039062 C 727.6875 1327.605469 710.976562 1357.25 744.316406 1384.355469 C 749.582031 1388.636719 755.59375 1392.601562 761.53125 1395.84375 C 779.535156 1405.671875 799.070312 1412.625 818.910156 1417.675781 C 842.476562 1423.679688 866.65625 1427.308594 890.726562 1430.519531 C 926.558594 1435.296875 962.527344 1438.253906 998.613281 1440.3125 C 1178.269531 1450.578125 1463.898438 1524.824219 1428.371094 1174.789062 C 1421.121094 1103.320312 1506.820312 1443.035156 1628.53125 1376.429688 C 1640.039062 1370.128906 1699.179688 1351.042969 1703.511719 1337.046875 C 1711.78125 1310.238281 1701.890625 1278.097656 1692.980469 1252.820312 C 1679.089844 1213.441406 1662.441406 1175.140625 1651.46875 1134.761719 C 1645.578125 1113.070312 1634.871094 1091.71875 1630.761719 1069.628906 C 1629.46875 1062.660156 1628.25 1055.671875 1626.980469 1048.699219 C 1626.578125 1046.46875 1624.308594 1040.230469 1625.691406 1042.03125 C 1680.511719 1113.371094 1705.410156 1305.960938 1750.890625 1203.238281 C 1793.039062 1108.039062 1655.890625 1018.679688 1604.980469 928.160156 C 1560.640625 849.320312 1519.050781 768.878906 1478.851562 687.851562 L 411.195312 662.628906 "/>
<g clip-path="url(#clip-0)">
<path fill-rule="evenodd" fill="rgb(100%, 86.326599%, 76.171875%)" fill-opacity="1" d="M 18.96875 2277.011719 C 18.96875 2277.011719 117.5 1792.886719 369.015625 1666.304688 C 482.835938 1609.023438 646.617188 1596.171875 731.671875 1503.066406 C 777.933594 1452.421875 798.183594 1386.140625 800.226562 1323.289062 C 804.414062 1194.738281 778.671875 977.269531 778.671875 977.269531 L 1219.070312 977.269531 C 1219.070312 977.269531 1193.328125 1194.738281 1197.511719 1323.289062 C 1199.558594 1386.140625 1219.808594 1452.421875 1266.070312 1503.066406 C 1351.121094 1596.171875 1514.910156 1609.023438 1628.730469 1666.304688 C 1880.238281 1792.886719 1978.769531 2277.011719 1978.769531 2277.011719 L 18.96875 2277.011719 "/>
</g>
<g clip-path="url(#clip-1)">
<g clip-path="url(#clip-2)">
<path fill-rule="evenodd" fill="rgb(89.84375%, 59.568787%, 57.226562%)" fill-opacity="1" d="M 998.871094 391.160156 C 1224.621094 391.160156 1407.910156 588.960938 1407.910156 832.601562 C 1407.910156 1076.230469 1224.621094 1274.03125 998.871094 1274.03125 C 773.117188 1274.03125 589.835938 1076.230469 589.835938 832.601562 C 589.835938 588.960938 773.117188 391.160156 998.871094 391.160156 "/>
</g>
</g>
<path fill-rule="evenodd" fill="rgb(100%, 86.326599%, 76.171875%)" fill-opacity="1" d="M 1466.839844 603.328125 C 1493.640625 552.179688 1577.570312 487.289062 1624.941406 553.359375 C 1629.671875 559.96875 1633.960938 567.371094 1636.398438 575.171875 C 1641.371094 591.039062 1640.070312 608.699219 1638.839844 625.050781 C 1635.28125 672.441406 1614.78125 717.121094 1588.011719 755.71875 C 1553.199219 805.878906 1496.738281 840.769531 1435.828125 847.339844 C 1398.25 851.398438 1360.550781 840.03125 1359.300781 797.089844 C 1357.980469 751.621094 1391.488281 713.351562 1414.839844 677.539062 C 1434.648438 647.128906 1445.96875 632.890625 1466.839844 603.328125 "/>
<path fill-rule="evenodd" fill="rgb(89.84375%, 59.568787%, 57.226562%)" fill-opacity="1" d="M 1480.640625 685.480469 C 1504.710938 660.921875 1537.25 646.871094 1569.820312 641.441406 C 1575.628906 640.46875 1579.558594 634.96875 1578.589844 629.160156 C 1577.621094 623.351562 1572.121094 619.421875 1566.308594 620.390625 C 1523.921875 627.449219 1481.769531 647.761719 1453.859375 683.761719 C 1445.289062 694.808594 1437.058594 706.71875 1430.429688 719.179688 C 1428.199219 723.371094 1426.261719 727.710938 1424.28125 732.03125 C 1423.628906 733.441406 1423.378906 733.980469 1422.789062 735.28125 C 1422.148438 736.730469 1420.671875 740.480469 1420.589844 741.109375 C 1419.839844 746.800781 1422.941406 749.75 1424.921875 751.179688 C 1427.058594 752.730469 1429.820312 753.761719 1433.460938 752.96875 C 1434.351562 752.78125 1436.679688 752.390625 1439.21875 749.621094 C 1449.429688 738.460938 1460.078125 725.710938 1472.25 715.808594 C 1482.898438 707.148438 1494.71875 700.660156 1508.839844 700.699219 C 1514.800781 700.71875 1521.019531 702.378906 1526.699219 704.191406 C 1532.308594 705.980469 1538.308594 702.878906 1540.101562 697.261719 C 1541.890625 691.648438 1538.789062 685.648438 1533.171875 683.859375 C 1525.46875 681.410156 1517 679.390625 1508.921875 679.359375 C 1498.738281 679.328125 1489.359375 681.589844 1480.640625 685.480469 "/>
<path fill-rule="evenodd" fill="rgb(100%, 86.326599%, 76.171875%)" fill-opacity="1" d="M 530.902344 608.441406 C 504.09375 557.300781 420.171875 492.410156 372.800781 558.480469 C 368.066406 565.078125 363.777344 572.488281 361.339844 580.289062 C 356.371094 596.160156 357.667969 613.820312 358.898438 630.171875 C 362.460938 677.558594 382.960938 722.238281 409.734375 760.839844 C 444.539062 811 500.996094 845.890625 561.910156 852.460938 C 599.492188 856.519531 637.1875 845.148438 638.4375 802.210938 C 639.761719 756.738281 606.246094 718.46875 582.90625 682.660156 C 563.089844 652.25 551.769531 638.011719 530.902344 608.441406 "/>
<path fill-rule="evenodd" fill="rgb(89.84375%, 59.568787%, 57.226562%)" fill-opacity="1" d="M 517.101562 690.609375 C 508.378906 686.710938 498.996094 684.449219 488.820312 684.480469 C 480.742188 684.511719 472.265625 686.53125 464.566406 688.980469 C 458.953125 690.769531 455.851562 696.769531 457.636719 702.378906 C 459.425781 708 465.433594 711.101562 471.042969 709.308594 C 476.722656 707.511719 482.9375 705.839844 488.894531 705.820312 C 503.019531 705.769531 514.84375 712.269531 525.492188 720.929688 C 537.664062 730.828125 548.308594 743.578125 558.523438 754.738281 C 561.0625 757.511719 563.394531 757.898438 564.28125 758.089844 C 567.917969 758.878906 570.679688 757.851562 572.816406 756.300781 C 574.800781 754.871094 577.894531 751.921875 577.148438 746.21875 C 577.066406 745.601562 575.589844 741.851562 574.945312 740.398438 C 574.363281 739.101562 574.109375 738.558594 573.460938 737.148438 C 571.480469 732.828125 569.535156 728.488281 567.308594 724.300781 C 560.683594 711.839844 552.445312 699.929688 543.878906 688.878906 C 515.96875 652.878906 473.824219 632.570312 431.429688 625.511719 C 425.621094 624.539062 420.117188 628.46875 419.152344 634.28125 C 418.183594 640.089844 422.113281 645.589844 427.921875 646.558594 C 460.488281 651.988281 493.03125 666.039062 517.101562 690.609375 "/>
<path fill-rule="evenodd" fill="rgb(100%, 86.326599%, 76.171875%)" fill-opacity="1" d="M 998.871094 72.570312 C 1285.46875 72.570312 1518.148438 331.351562 1518.148438 650.109375 C 1518.148438 968.859375 1285.46875 1227.640625 998.871094 1227.640625 C 712.269531 1227.640625 479.585938 968.859375 479.585938 650.109375 C 479.585938 331.351562 712.269531 72.570312 998.871094 72.570312 "/>
<path fill-rule="evenodd" fill="rgb(0%, 0%, 0%)" fill-opacity="1" d="M 1145.730469 605.808594 C 1160.511719 605.808594 1172.519531 624.269531 1172.519531 647 C 1172.519531 669.738281 1160.511719 688.191406 1145.730469 688.191406 C 1130.941406 688.191406 1118.929688 669.738281 1118.929688 647 C 1118.929688 624.269531 1130.941406 605.808594 1145.730469 605.808594 "/>
<path fill-rule="evenodd" fill="rgb(0%, 0%, 0%)" fill-opacity="1" d="M 846.753906 605.808594 C 861.539062 605.808594 873.546875 624.269531 873.546875 647 C 873.546875 669.738281 861.539062 688.191406 846.753906 688.191406 C 831.964844 688.191406 819.957031 669.738281 819.957031 647 C 819.957031 624.269531 831.964844 605.808594 846.753906 605.808594 "/>
<path fill-rule="evenodd" fill="rgb(89.84375%, 59.568787%, 57.226562%)" fill-opacity="1" d="M 964.945312 805.359375 C 965.152344 804.878906 966.746094 801.230469 968.082031 799.039062 C 972.332031 792.078125 978.015625 784.609375 980.140625 780.070312 C 989.21875 760.660156 993.667969 741.339844 996.542969 720.128906 C 997.335938 714.300781 993.238281 708.921875 987.402344 708.121094 C 981.566406 707.328125 976.1875 711.429688 975.394531 717.261719 C 972.816406 736.269531 968.949219 753.621094 960.808594 771.03125 C 958.515625 775.929688 951.59375 784.429688 947.699219 791.691406 C 944.972656 796.761719 943.558594 801.589844 943.597656 805.269531 C 943.707031 816.300781 949.453125 826.28125 958.261719 834.640625 C 968.882812 844.71875 984.015625 852.480469 993.996094 857.601562 C 999.238281 860.289062 1005.671875 858.21875 1008.359375 852.980469 C 1011.050781 847.738281 1008.980469 841.308594 1003.738281 838.621094 C 995.1875 834.21875 982.058594 827.800781 972.953125 819.160156 C 968.683594 815.101562 965.125 810.679688 964.945312 805.359375 "/>
<path fill-rule="evenodd" fill="rgb(0%, 0%, 0%)" fill-opacity="1" d="M 1119.449219 543.558594 C 1164.488281 536.089844 1213.871094 545.238281 1246.730469 579.101562 C 1250.828125 583.328125 1257.589844 583.429688 1261.820312 579.328125 C 1266.039062 575.230469 1266.148438 568.460938 1262.039062 564.238281 C 1224.269531 525.300781 1167.738281 513.910156 1115.960938 522.511719 C 1110.140625 523.46875 1106.210938 528.96875 1107.171875 534.78125 C 1108.140625 540.589844 1113.640625 544.519531 1119.449219 543.558594 "/>
<path fill-rule="evenodd" fill="rgb(0%, 0%, 0%)" fill-opacity="1" d="M 881.785156 522.511719 C 829.996094 513.910156 773.472656 525.300781 735.695312 564.238281 C 731.59375 568.460938 731.695312 575.230469 735.921875 579.328125 C 740.148438 583.429688 746.910156 583.328125 751.011719 579.101562 C 783.871094 545.238281 833.25 536.089844 878.292969 543.558594 C 884.101562 544.519531 889.601562 540.589844 890.566406 534.78125 C 891.53125 528.96875 887.59375 523.46875 881.785156 522.511719 "/>
<path fill-rule="evenodd" fill="rgb(89.84375%, 59.568787%, 57.226562%)" fill-opacity="1" d="M 927.695312 931.191406 C 943.621094 952.269531 971.855469 962.539062 999.957031 962.078125 C 1028.070312 961.628906 1055.589844 950.421875 1070.128906 930.648438 C 1073.621094 925.910156 1072.601562 919.21875 1067.859375 915.730469 C 1063.109375 912.238281 1056.429688 913.261719 1052.941406 918.011719 C 1041.96875 932.910156 1020.808594 940.398438 999.613281 940.738281 C 978.410156 941.089844 956.738281 934.230469 944.722656 918.328125 C 941.171875 913.628906 934.476562 912.699219 929.777344 916.25 C 925.078125 919.800781 924.144531 926.488281 927.695312 931.191406 "/>
<path fill-rule="evenodd" fill="rgb(98.826599%, 80.076599%, 74.414062%)" fill-opacity="1" d="M 1196.941406 728.570312 C 1230.121094 728.570312 1257.058594 746.039062 1257.058594 767.550781 C 1257.058594 789.070312 1230.121094 806.539062 1196.941406 806.539062 C 1163.761719 806.539062 1136.820312 789.070312 1136.820312 767.550781 C 1136.820312 746.039062 1163.761719 728.570312 1196.941406 728.570312 "/>
<path fill-rule="evenodd" fill="rgb(98.826599%, 80.076599%, 74.414062%)" fill-opacity="1" d="M 800.800781 728.570312 C 833.980469 728.570312 860.917969 746.039062 860.917969 767.550781 C 860.917969 789.070312 833.980469 806.539062 800.800781 806.539062 C 767.621094 806.539062 740.683594 789.070312 740.683594 767.550781 C 740.683594 746.039062 767.621094 728.570312 800.800781 728.570312 "/>
<path fill-rule="evenodd" fill="rgb(20.800781%, 43.406677%, 61.914062%)" fill-opacity="1" d="M 1017.671875 41.148438 C 947.242188 -25.289062 797.652344 1.53125 713.210938 35.390625 C 607.976562 77.589844 528.367188 164.78125 484.890625 271.71875 C 465.558594 319.28125 462.101562 370.820312 456.898438 421.261719 C 455.359375 436.179688 453.296875 451.050781 451.566406 465.949219 C 450.109375 478.539062 449.148438 491.171875 448.039062 503.800781 C 445.292969 535.089844 425.613281 558.078125 452.246094 583.800781 C 484.042969 614.5 532.21875 613.640625 573.050781 609.941406 C 637.5625 604.101562 693.921875 601.800781 737.304688 546.5 C 745.328125 536.269531 753.136719 525.320312 759.226562 513.789062 C 769.734375 493.898438 777.652344 472.261719 784.699219 450.921875 C 796.414062 415.488281 802.585938 375.511719 826.003906 345.289062 C 829.570312 340.691406 848.824219 317.859375 856.761719 321.28125 C 880.648438 331.578125 884.847656 361.980469 886.34375 384.949219 C 889.265625 429.839844 863.394531 486.160156 877.800781 529.410156 C 879.441406 534.328125 891.078125 538.921875 894.976562 540.558594 C 914.542969 548.761719 936.402344 551.898438 957.417969 553.378906 C 1001.289062 556.460938 1045.53125 554.140625 1089.488281 555.511719 C 1117.851562 556.398438 1153.289062 563.578125 1181.28125 555.378906 C 1199.429688 550.058594 1210.519531 530.03125 1215.960938 513.390625 C 1230.628906 468.511719 1225.941406 420.539062 1219.871094 374.660156 C 1218.449219 363.878906 1199.96875 303.660156 1226.308594 308.910156 C 1251.148438 313.859375 1264.78125 348.109375 1271.449219 369.261719 C 1282.859375 405.449219 1286.929688 444.199219 1286.558594 482.039062 C 1286.351562 503.660156 1278.441406 535.78125 1286.011719 556.738281 C 1291.738281 572.609375 1310.019531 581.890625 1324.320312 588.089844 C 1354.628906 601.238281 1389.101562 607.089844 1421.589844 612.019531 C 1441.410156 615.03125 1461.328125 616.980469 1481.328125 618.339844 C 1489.230469 618.878906 1501.769531 622.140625 1509.148438 617.558594 C 1533.511719 602.441406 1544.011719 568.601562 1548.429688 542.050781 C 1559.308594 476.710938 1543.601562 407.421875 1521.421875 346.070312 C 1501.160156 290.019531 1471.289062 216.550781 1432.078125 170.699219 C 1299.230469 15.378906 1160.238281 39.769531 1017.671875 41.148438 "/>
<path fill-rule="evenodd" fill="rgb(20.800781%, 43.406677%, 61.914062%)" fill-opacity="1" d="M 1409.101562 1114.96875 C 1428.800781 1156.078125 1439.761719 1204.671875 1440.570312 1250.390625 C 1440.890625 1268.371094 1440.609375 1286.601562 1434.949219 1303.859375 C 1427.21875 1327.414062 1412.539062 1347.457031 1395.640625 1365.261719 C 1383.398438 1378.148438 1368.160156 1391.226562 1351.179688 1397.519531 C 1347.558594 1398.863281 1345.710938 1402.894531 1347.050781 1406.519531 C 1348.390625 1410.140625 1352.421875 1411.992188 1356.050781 1410.648438 C 1374.980469 1403.628906 1392.140625 1389.273438 1405.789062 1374.898438 C 1424.109375 1355.597656 1439.871094 1333.761719 1448.25 1308.226562 C 1454.410156 1289.472656 1454.921875 1269.679688 1454.570312 1250.140625 C 1453.71875 1202.460938 1442.269531 1151.789062 1421.730469 1108.921875 C 1420.058594 1105.429688 1415.871094 1103.960938 1412.390625 1105.628906 C 1408.898438 1107.300781 1407.429688 1111.480469 1409.101562 1114.96875 "/>
<path fill-rule="evenodd" fill="rgb(20.800781%, 43.406677%, 61.914062%)" fill-opacity="1" d="M 987.039062 82.941406 C 1030.03125 54.910156 1074.710938 34.839844 1126.140625 29.058594 C 1220.070312 18.511719 1327.558594 38.089844 1404.210938 96.390625 C 1530.25 192.261719 1565.96875 385.839844 1525.640625 532.359375 C 1524.609375 536.089844 1526.800781 539.949219 1530.53125 540.96875 C 1534.25 542 1538.109375 539.808594 1539.128906 536.078125 C 1580.859375 384.480469 1543.089844 184.429688 1412.691406 85.25 C 1333.25 24.828125 1221.929688 4.210938 1124.578125 15.148438 C 1070.921875 21.179688 1024.25 41.96875 979.394531 71.210938 C 976.15625 73.320312 975.242188 77.660156 977.351562 80.890625 C 979.464844 84.128906 983.804688 85.050781 987.039062 82.941406 "/>
<g clip-path="url(#clip-3)">
<path fill-rule="evenodd" fill="rgb(20.800781%, 43.505859%, 61.914062%)" fill-opacity="1" d="M 1356.480469 1566.292969 C 1441.53125 1607.296875 1547.761719 1625.558594 1628.730469 1666.304688 C 1880.238281 1792.886719 1978.769531 2277.011719 1978.769531 2277.011719 L 1122.429688 2277.011719 L 1356.480469 1566.292969 "/>
</g>
<g clip-path="url(#clip-4)">
<path fill-rule="evenodd" fill="rgb(20.800781%, 43.505859%, 61.914062%)" fill-opacity="1" d="M 641.261719 1566.292969 C 556.214844 1607.296875 449.976562 1625.558594 369.015625 1666.304688 C 117.5 1792.886719 18.96875 2277.011719 18.96875 2277.011719 L 875.308594 2277.011719 L 641.261719 1566.292969 "/>
</g>
<path fill-rule="evenodd" fill="rgb(0%, 0%, 0%)" fill-opacity="1" d="M 1257.871094 1947.640625 L 1437.359375 1851.636719 L 1356.480469 1566.292969 L 1137.039062 2232.664062 L 1299.191406 2071.730469 L 1257.871094 1947.640625 "/>
<path fill-rule="evenodd" fill="rgb(0%, 0%, 0%)" fill-opacity="1" d="M 739.867188 1947.640625 L 560.378906 1851.636719 L 641.261719 1566.292969 L 860.695312 2232.664062 L 698.554688 2071.730469 L 739.867188 1947.640625 "/>
<g clip-path="url(#clip-5)">
<path fill-rule="evenodd" fill="rgb(100%, 100%, 100%)" fill-opacity="1" d="M 1356.480469 1566.292969 L 1122.429688 2277.011719 L 875.308594 2277.011719 L 641.261719 1566.292969 L 649.21875 1562.667969 C 740.6875 1637.835938 863.695312 1683.824219 998.871094 1683.824219 C 1134.039062 1683.824219 1257.050781 1637.835938 1348.519531 1562.667969 L 1356.480469 1566.292969 "/>
</g>
</svg>
